<?xml version="1.0" encoding="UTF-8" standalone="no"?>
<!-- Created with Inkscape (http://www.inkscape.org/) -->

<svg
   version="1.1"
   id="svg1"
   width="589.479"
   height="580.1615"
   viewBox="0 0 589.479 580.1615"
   xmlns="http://www.w3.org/2000/svg"
   xmlns:svg="http://www.w3.org/2000/svg">
  <defs
     id="defs1" />
  <g
     id="g1"
     transform="translate(-8.3498756,-13.662104)">
    <g
       id="g19167">
      <path
         style="display:none;fill:#989faa"
         d="M 296.95836,593.69834 C 286.93244,589.96329 233.51359,559.48337 165.5,518.69035 118.0874,490.25335 15.269315,425.40348 10.744922,421.08256 5.0480747,415.64191 4.7370749,418.19913 19.328919,350.5 28.6054,307.46159 46.7135,221.41363 53.070449,190.16348 c 8.000169,-39.32807 6.220759,-36.9912 39.82098,-52.29629 12.631661,-5.7538 13.223411,-5.50185 10.212361,4.34814 -8.198136,26.81837 -18.020858,66.20094 -16.812974,67.40882 0.25403,0.25403 7.430324,-3.0885 15.947324,-7.42784 21.19616,-10.79927 36.62925,-17.19762 60.76186,-25.19105 19.86676,-6.58046 29.15747,-9.02321 56.5,-14.85522 13,-2.77282 13,-2.77282 13.60157,-19.21143 3.57196,-97.608629 139.23718,-94.716647 140.25812,2.98989 C 373.5,159.357 373.5,159.357 387,162.13416 c 44.64362,9.18389 78.37244,20.57403 113.96177,38.48461 10.15398,5.11006 18.67894,9.07385 18.94436,8.80843 1.10198,-1.10198 -8.46768,-40.55856 -15.00032,-61.84775 -5.4754,-17.84373 -5.28382,-17.85875 24.83019,-1.94772 17.02367,8.99462 15.73739,6.5339 23.71515,45.36827 17.94413,87.34896 30.67892,148.41273 39.4707,189.26338 8.7505,40.65889 9.36171,37.0651 -8.25739,48.55255 C 528.69568,465.30697 419.6901,531.84466 357,567.78376 c -45.90251,26.31507 -51.95472,28.92727 -60.04164,25.91458 z M 247.15125,414.94905 c 7.37624,-2.48488 21.3661,-9.46406 36.84682,-18.38194 18.89675,-10.88573 19.10104,-10.87684 41.1684,1.79165 44.65196,25.63393 59.6331,25.13409 79.68577,-2.65867 15.24868,-21.13448 18.54973,-35.13949 11.62572,-49.32326 -3.05469,-6.2575 -36.72034,-38.98513 -73.81239,-71.75575 -26.40397,-23.32777 -55.50837,-22.24444 -83.31252,3.10107 -22.29824,20.32649 -65.21614,61.27683 -67.32514,64.23866 -20.93705,29.40337 20.73014,84.57447 55.12334,72.98824 z m 46.18477,-42.55506 c -9.5354,-4.70286 -38.22516,-44.94274 -36.81064,-51.63013 C 259.24968,307.88422 262.22602,307 302.85556,307 c 57.07981,0 60.2431,9.77134 18.38434,56.78873 -9.21943,10.35563 -18.53192,13.2275 -27.90388,8.60526 z m -90.62158,-87.9895 c 18.48437,-8.92162 22.12836,-32.01174 5.59369,-35.44432 -3.09617,-0.64276 -13.31961,-3.13985 -22.71876,-5.54909 -19.21077,-4.92419 -18.46862,-5.03339 -20.78347,3.05802 -8.0169,28.02257 13.60897,49.66376 37.90854,37.93539 z m 225.46884,0.83864 c 14.55225,-6.43716 21.53146,-36.32882 10.51409,-45.03139 -1.62998,-1.28752 -47.31279,9.97337 -49.54589,12.21314 -14.58873,14.6323 18.06893,42.09112 39.0318,32.81825 z M 333.80483,145.75 c -1.70165,-47.742937 -59.01925,-46.811168 -61.51483,1 -0.58721,11.25 -0.58721,11.25 30.68212,11.25 31.26932,0 31.26932,0 30.83271,-12.25 z M 108.30615,184.35543 C 107.54161,182.36307 109.903,172.89426 115.75168,154.5 136.18421,90.239146 178.21318,49.430724 241.46468,32.437778 252.811,29.38951 252.11535,27.937561 251.34096,53.051171 250.67957,74.5 250.67957,74.5 244.49807,81 c -15.11109,15.889678 -23.47473,34.70291 -25.06624,56.38417 -0.85987,11.71417 1.06737,10.31148 -22.67165,16.50086 -26.82229,6.99327 -61.07444,19.15966 -77.79659,27.63342 -8.46621,4.29015 -9.9484,4.68471 -10.65744,2.83698 z M 482,178.90805 c -23.90099,-10.60118 -50.86886,-19.87992 -78.35552,-26.95951 -17.77681,-4.57867 -15.78835,-2.77752 -16.76837,-15.18875 -1.79789,-22.76893 -9.05784,-39.341224 -24.3697,-55.628687 C 355.82146,74.02022 355.86835,74.292806 354.65623,35.5 354.4574,29.136529 355.85146,29.145079 375,35.624767 c 65.08042,22.022612 99.09913,59.59511 119.56135,132.051423 5.65028,20.00753 6.17206,19.54097 -12.56135,11.23186 z M 337.05669,63.823648 C 316.13071,54.066395 287.31373,54.14687 267.96748,64.016589 261.31374,67.411073 261,67.11552 261,57.45306 261,48.515667 263.71975,31.091098 266.84594,20 c 1.83212,-6.5 1.83212,-6.5 6.24309,-7.175877 5.52512,-0.846594 59.6064,-1.012415 62.66743,-0.192147 3.80172,1.01875 8.86891,22.795483 9.91672,42.618024 0.71648,13.554472 1.14699,13.126108 -8.61649,8.573648 z"
         id="path19177" />
      <path
         style="display:inline;fill:#788599"
         d="M 296.91146,592.68221 C 283.31859,587.62345 184.88116,530.18553 113.62751,485.73664 83.76511,467.10811 38.551771,438.47638 18.798919,425.68562 5.3104248,416.95129 5.4437229,419.51814 15.965886,371.13149 20.347123,350.98417 26.902681,320.325 30.533792,303 c 3.631111,-17.325 9.074507,-43.2 12.096435,-57.5 3.021928,-14.3 8.199071,-39.24808 11.504763,-55.44019 6.029123,-29.53214 7.080322,-33.15378 10.512631,-36.21856 C 67.262572,151.5063 100.25291,135 102.3047,135 c 2.22161,0 2.30127,-0.49027 -2.28344,14.05176 -6.736097,21.36589 -16.197384,61.10545 -14.865279,62.43755 0.31267,0.31267 5.692984,-2.12251 11.956255,-5.41151 C 133.90986,186.75441 174.26619,172.48229 216,164.03282 c 19.94704,-4.0385 17.99744,-2.16422 18.01736,-17.32136 0.0358,-27.19573 8.86956,-46.726027 27.3312,-60.425329 48.05079,-35.655698 110.74187,-2.042854 110.83206,59.424419 0.0233,15.86976 -2.00639,13.99955 20.31938,18.72296 42.62843,9.01878 81.06131,22.62529 116.19283,41.1361 6.70606,3.53342 12.4176,6.06073 12.69232,5.61623 0.95558,-1.54617 -8.44496,-40.59064 -14.94249,-62.06255 C 503.31749,138.79577 502.34602,134 503.37916,134 c 4.01915,0 38.52202,19.10404 40.61288,22.48712 1.875,3.03381 3.5322,10.57826 20.98018,95.51288 8.11156,39.48608 21.05786,101.11495 28.01618,133.36676 7.92412,36.72829 12.21408,29.77946 -37.69531,61.05849 -104.0126,65.18641 -159.92076,98.91269 -216.79309,130.77918 -30.04467,16.83451 -33.99384,18.30425 -41.58854,15.47778 z M 248.77733,415.90459 c 5.7393,-1.97462 21.15302,-9.83206 38.01519,-19.37899 16.07518,-9.10136 18.0062,-8.90396 39.92703,4.0814 41.69846,24.70114 58.00554,24.05208 78.57661,-3.12754 23.6474,-31.24424 22.2851,-45.33997 -7.07858,-73.24206 -67.69324,-64.32378 -74.36349,-68.767 -100.21312,-66.7546 -18.26473,1.42191 -24.06158,4.81312 -50.50446,29.5455 -5.5,5.14422 -16.2989,15.22981 -23.99756,22.41242 -33.96483,31.68813 -35.13198,33.0483 -38.01513,44.30236 -2.87713,11.23052 0.81623,23.19631 11.96272,38.75692 17.35322,24.22528 30.93771,30.41963 51.3273,23.40459 z M 294.5,371.12229 c -5.03653,-2.30898 -23.90017,-24.80826 -33.29314,-39.70984 -5.57224,-8.84012 -3.5149,-17.55436 5.0638,-21.44863 7.00325,-3.1791 67.468,-2.92857 73.17361,0.30319 13.0987,7.41933 11.0986,15.05179 -11.30934,43.15705 C 312.3417,373.23277 306.178,376.47603 294.5,371.12229 Z m -93.8185,-84.27608 c 16.20319,-6.06239 27.07752,-33.79492 14.57947,-37.18166 -47.96156,-12.99668 -48.92895,-13.04735 -51.93261,-2.71972 -7.88356,27.1065 12.7215,49.11725 37.35314,39.90138 z m 227.8566,-0.2118 c 15.66747,-7.29574 22.08023,-32.81841 11.6605,-46.40854 -2.94212,-3.83732 -50.72878,8.2528 -53.08833,13.43145 -8.85745,19.43999 20.43143,42.75432 41.42783,32.97709 z M 341.55549,148.2454 c 0.93331,-38.44747 -51.60031,-60.686115 -68.86223,-27.62552 -12.30244,23.56203 -6.41716,48.50211 26.68943,48.25696 31.84028,-0.23577 41.88983,-8.97451 42.1728,-20.63144 z"
         id="path19176" />
      <path
         style="display:inline;fill:#9c7a50"
         d="M 286.74252,587.12502 C 238.8145,562.07935 83.915289,468.26225 16.00637,423.14949 5.964143,416.47831 5.8477826,420.67971 17.575314,366.5 27.838543,319.08518 43.481678,244.84479 54.501539,191.25268 62.688009,151.44001 59.688575,156.03367 86,143.01252 c 19.48189,-9.64131 18.6611,-10.27475 12.452581,9.61017 -4.391614,14.06566 -14.444421,54.85245 -14.449996,58.62731 -0.0035,2.3976 -0.375803,2.52873 13.29893,-4.68481 24.108185,-12.7173 54.955805,-25.12035 81.984335,-32.96384 10.87953,-3.15717 18.7451,-5.02046 46.96415,-11.12545 4.2625,-0.92217 7.77409,-1.96899 7.80354,-2.32628 0.0294,-0.35729 0.20274,-7.17462 0.38511,-15.14962 2.21756,-96.978317 133.67879,-96.520403 137.47511,0.47886 0.5832,14.90113 0.59921,14.98266 3.08624,15.71092 1.375,0.40264 9.25,2.1474 17.5,3.87727 43.17124,9.05215 84.10026,23.68347 119.08219,42.56953 10.50375,5.67077 10.84543,5.64462 9.99519,-0.76479 -0.94239,-7.1041 -8.80576,-38.34331 -14.16371,-56.26892 -5.50649,-18.42254 -6.78518,-17.8734 15.34961,-6.59202 23.54168,11.99843 20.97041,7.746 29.37783,48.58592 22.67556,110.14893 27.29564,132.31952 37.44696,179.6986 10.82815,50.53808 12.70306,44.0268 -18.24103,63.34836 -9.81587,6.12905 -23.02204,14.41332 -29.34704,18.40947 -76.21075,48.1502 -151.15996,93.24235 -206.23415,124.0779 -32.15452,18.00303 -31.87974,17.95262 -49.02333,8.99392 z m 90.7921,-168.21605 c 25.51101,-4.71597 51.19057,-47.17637 42.47186,-70.226 -3.0999,-8.1952 -28.78537,-33.75093 -74.00648,-73.63266 -27.52074,-24.27129 -57.68928,-25.29311 -83.19494,-2.81785 -11.90329,10.48903 -51.74782,47.5404 -63.09055,58.66781 -20.38894,20.00189 -21.17595,36.34573 -2.98008,61.88707 23.62935,33.16827 38.82167,34.3427 85.92234,6.64219 19.97974,-11.75035 20.22891,-11.74609 41.96515,0.71771 22.31379,12.79497 33.83025,17.82254 43.87808,19.1552 1.65,0.21884 3.02985,0.46532 3.06634,0.54773 0.0365,0.0824 2.72221,-0.34113 5.96828,-0.9412 z M 294.5,370.58591 c -1.65,-0.7347 -5.25,-3.94993 -8,-7.14496 -40.86375,-47.47673 -39.31065,-53.75408 13.42044,-54.24307 50.30441,-0.46648 57.44682,5.04182 38.64332,29.80212 -24.90589,32.7959 -31.20523,37.31141 -44.06376,31.58591 z m -91.9009,-83.63389 c 13.63921,-6.60262 21.89934,-22.77734 16.95403,-33.19881 -1.99355,-4.2011 -3.46628,-4.87083 -18.05313,-8.20978 -6.05,-1.38486 -15.93511,-3.82208 -21.9669,-5.41606 -12.91326,-3.41248 -12.71393,-3.45334 -15.58477,3.19417 -12.14387,28.11949 12.71787,56.18439 38.65077,43.63048 z m 224.64579,1.05754 c 15.7893,-5.90753 23.46042,-27.90923 15.43156,-44.25956 -3.44325,-7.012 -1.48473,-6.95989 -27.34018,-0.72732 -27.43404,6.6131 -26.82981,6.39026 -28.84579,10.63863 -9.02644,19.02179 18.87251,42.53532 40.75441,34.34825 z M 333.75,159.48292 c 0.90607,-0.30455 1.25,-3.68155 1.25,-12.2734 0,-50.740746 -62.49727,-51.435629 -63.81405,-0.70952 -0.36343,14 -0.36343,14 30.47531,13.70153 16.96131,-0.16415 31.40124,-0.48753 32.08874,-0.71861 z"
         id="path19175" />
      <path
         style="display:inline;fill:#4a6189"
         d="M 286.74252,587.12502 C 238.8145,562.07935 83.915289,468.26225 16.00637,423.14949 5.964143,416.47831 5.8477826,420.67971 17.575314,366.5 27.838543,319.08518 43.481678,244.84479 54.501539,191.25268 62.688009,151.44001 59.688575,156.03367 86,143.01252 c 19.48189,-9.64131 18.6611,-10.27475 12.452581,9.61017 -4.391614,14.06566 -14.444421,54.85245 -14.449996,58.62731 -0.0035,2.3976 -0.375803,2.52873 13.29893,-4.68481 24.108185,-12.7173 54.955805,-25.12035 81.984335,-32.96384 10.87953,-3.15717 18.7451,-5.02046 46.96415,-11.12545 4.2625,-0.92217 7.77409,-1.96899 7.80354,-2.32628 0.0294,-0.35729 0.20274,-7.17462 0.38511,-15.14962 2.21756,-96.978317 133.67879,-96.520403 137.47511,0.47886 0.5832,14.90113 0.59921,14.98266 3.08624,15.71092 1.375,0.40264 9.25,2.1474 17.5,3.87727 43.17124,9.05215 84.10026,23.68347 119.08219,42.56953 10.50375,5.67077 10.84543,5.64462 9.99519,-0.76479 -0.94239,-7.1041 -8.80576,-38.34331 -14.16371,-56.26892 -5.50649,-18.42254 -6.78518,-17.8734 15.34961,-6.59202 23.54168,11.99843 20.97041,7.746 29.37783,48.58592 22.67556,110.14893 27.29564,132.31952 37.44696,179.6986 10.82815,50.53808 12.70306,44.0268 -18.24103,63.34836 -9.81587,6.12905 -23.02204,14.41332 -29.34704,18.40947 -76.21075,48.1502 -151.15996,93.24235 -206.23415,124.0779 -32.15452,18.00303 -31.87974,17.95262 -49.02333,8.99392 z m 90.7921,-168.21605 c 25.51101,-4.71597 51.19057,-47.17637 42.47186,-70.226 -3.0999,-8.1952 -28.78537,-33.75093 -74.00648,-73.63266 -27.52074,-24.27129 -57.68928,-25.29311 -83.19494,-2.81785 -11.90329,10.48903 -51.74782,47.5404 -63.09055,58.66781 -20.38894,20.00189 -21.17595,36.34573 -2.98008,61.88707 23.62935,33.16827 38.82167,34.3427 85.92234,6.64219 19.97974,-11.75035 20.22891,-11.74609 41.96515,0.71771 22.31379,12.79497 33.83025,17.82254 43.87808,19.1552 1.65,0.21884 3.02985,0.46532 3.06634,0.54773 0.0365,0.0824 2.72221,-0.34113 5.96828,-0.9412 z M 294.5,370.58591 c -1.65,-0.7347 -5.25,-3.94993 -8,-7.14496 -40.86375,-47.47673 -39.31065,-53.75408 13.42044,-54.24307 50.30441,-0.46648 57.44682,5.04182 38.64332,29.80212 -24.90589,32.7959 -31.20523,37.31141 -44.06376,31.58591 z m -91.9009,-83.63389 c 13.63921,-6.60262 21.89934,-22.77734 16.95403,-33.19881 -1.99355,-4.2011 -3.46628,-4.87083 -18.05313,-8.20978 -6.05,-1.38486 -15.93511,-3.82208 -21.9669,-5.41606 -12.91326,-3.41248 -12.71393,-3.45334 -15.58477,3.19417 -12.14387,28.11949 12.71787,56.18439 38.65077,43.63048 z m 224.64579,1.05754 c 15.7893,-5.90753 23.46042,-27.90923 15.43156,-44.25956 -3.44325,-7.012 -1.48473,-6.95989 -27.34018,-0.72732 -27.43404,6.6131 -26.82981,6.39026 -28.84579,10.63863 -9.02644,19.02179 18.87251,42.53532 40.75441,34.34825 z M 349.97471,147.5 C 349.86738,88.372245 277.70505,72.133253 258.37652,126.88728 247.85004,156.70676 252.88574,160.5 302.999,160.5 c 46.9993,0 46.9993,0 46.97571,-13 z m 133.85437,30.51161 C 461.2068,167.75839 428.06042,156.18526 403.5,149.96454 388.66757,146.20775 389.04012,146.50235 389.00218,138.5 388.90854,118.75215 378.6122,94.743202 364.01555,80.236326 358.24372,74.5 358.24372,74.5 357.64058,59.5 c -0.33172,-8.25 -0.89065,-17.8125 -1.24205,-21.25 -0.75099,-7.346387 -1.50824,-7.129337 11.22848,-3.218405 69.92481,21.471081 106.37362,61.011368 126.8189,137.575295 3.2944,12.33695 3.94614,12.00518 -10.61683,5.40472 z M 263,56.386457 c 0,-10.228514 5.2366,-38.952152 7.51844,-41.239899 1.8643,-1.869133 63.94045,-2.02666 65.84203,-0.167083 C 339.80323,18.346192 346.10264,64 343.12443,64 c -0.48156,0 -3.51906,-1.17072 -6.75,-2.6016 C 315.44896,52.131171 290.0626,52.313075 267.75,61.890123 263,63.928925 263,63.928925 263,56.386457 Z"
         id="path19174" />
      <path
         style="display:inline;fill:#4e5564"
         d="M 295,591.12816 C 273.96975,582.81753 141.66132,503.42367 28.5,431.21044 4.1184512,415.6515 5.1423912,424.02878 19.551619,358 27.148996,323.18582 53.996212,195.07659 58.504877,172.12331 61.134382,158.73669 62.401448,155.97008 67.304334,152.90993 72.94892,149.38685 100.06627,136 101.55829,136 c 1.97761,0 1.95198,0.14456 -2.504066,14.12261 -8.289365,26.00267 -17.027054,64.92066 -14.304042,63.71072 0.4126,-0.18333 7.9501,-3.99411 16.749998,-8.4684 36.94279,-18.78346 68.83808,-30.05197 109.99982,-38.8626 26.31642,-5.63301 22.88966,-2.3129 23.56566,-22.83221 3.15154,-95.663091 134.73353,-94.207079 136.4645,1.51004 0.29381,16.24678 0.34241,16.44428 4.23131,17.19371 51.12299,9.85184 87.61727,21.8054 126.5354,41.44619 11.44462,5.77574 19.1568,9.12627 19.71708,8.56599 1.28103,-1.28103 -10.79149,-52.88912 -14.84687,-63.46797 -5.74014,-14.97371 -5.2974,-15.32417 9.90624,-7.84167 29.32054,14.43017 26.46678,10.34965 34.4551,49.26641 5.83252,28.41429 16.29165,78.90424 27.89461,134.65718 2.46094,11.825 6.77258,32.075 9.58141,45 9.32409,42.90533 9.40369,43.3769 7.86347,46.58388 -2.14635,4.46902 -1.08575,3.78045 -122.44899,79.49637 -34.19953,21.33634 -104.22439,62.71398 -140.35327,82.93463 C 307.82232,593.70278 304.28819,594.79863 295,591.12816 Z M 251.26242,415.72698 c 4.26934,-1.66068 13.26934,-6.11501 20,-9.89851 33.55298,-18.86106 30.6731,-18.58468 53.98438,-5.18097 49.76558,28.61462 70.06097,24.16276 91.83358,-20.14399 13.62967,-27.73605 8.46434,-35.49382 -69.30083,-104.08235 -31.9725,-28.1996 -59.05534,-27.81272 -91.27955,1.30394 -81.09128,73.27121 -84.00116,78.44905 -62.49425,111.20227 18.65089,28.40374 34.30094,35.72892 57.25667,26.79961 z M 295,370.43923 c -1.925,-0.81537 -4.55052,-2.71026 -5.83448,-4.21086 -43.82379,-51.21794 -42.40665,-57.1683 13.62432,-57.20641 55.01974,-0.0374 57.26654,7.31667 16.45261,53.85169 -7.88613,8.99157 -15.36529,11.32566 -24.24245,7.56558 z m -93.13432,-82.95659 c 19.18928,-8.93296 26.925,-35.53411 11.42993,-39.30459 -9.34765,-2.2746 -21.65628,-5.44389 -31.79561,-8.18689 -14.31671,-3.87312 -14.82301,-3.85028 -16.82543,0.75884 -13.03926,30.0135 10.24797,59.27516 37.19111,46.73264 z m 227.63432,0.008 c 13.21805,-6.43985 19.77607,-24.09568 14.96612,-40.29253 -3.1102,-10.47319 -4.26488,-10.93273 -18.53367,-7.37598 C 384.46886,250.15744 385,249.8986 385,259.76884 c 0,21.17263 25.42828,37.01334 44.5,27.72157 z m -7.67702,-88.56836 c -0.75765,-2.17339 -0.76151,-3.76154 -0.0132,-5.404 1.59132,-3.49256 -0.62651,-4.86954 -14.30982,-8.88455 -45.50263,-13.35154 -94.96664,-17.46779 -146,-12.14971 -37.22474,3.87912 -84.20386,16.33225 -81.02384,21.47764 0.52014,0.84159 1.07213,0.82842 2.13163,-0.0509 1.75481,-1.45637 5.39221,1.36697 5.39221,4.18542 0,2.95814 0.7265,2.90731 24.02573,-1.68093 55.66279,-10.96148 101.94737,-12.60143 151.95007,-5.38386 13.62577,1.9668 53.06482,9.6761 53.93078,10.54207 2.10326,2.10326 4.91119,0.20244 3.9164,-2.6512 z m -66.16725,-51.60616 c -0.11095,-59.16025 -91.05081,-97.052289 -102.74092,-6.8838 -4.10281,31.64591 1.55228,27.0317 51.61447,26.85593 47,-0.16502 51.1509,-6.93754 51.12645,-19.97213 z"
         id="path19173" />
      <path
         style="display:inline;fill:#314a74"
         d="M 299.34764,592.05368 C 204.32856,543.5635 115.08373,484.72162 24.900369,427.99952 -6.7261599,410.23388 23.630472,369.48596 23.645738,341.57318 36.96001,281.02789 48.640572,220.13446 62.23328,159.64924 c 11.303762,-15.60023 53.09463,-33.57789 33.597426,1.5249 -6.346249,16.01039 -23.375283,66.37589 10.019484,41.6225 40.12434,-19.24364 82.91809,-32.63264 126.55007,-41.16801 3.46753,-29.07575 1.05476,-90.742228 73.18612,-91.794273 54.83953,-1.100946 65.62687,42.738993 67.06247,84.262753 0.30498,4.48168 5.70467,8.45063 40.40642,16.31808 37.20069,9.30041 72.72025,24.33394 106.77206,41.79626 8.19895,-23.77055 -21.05323,-60.91945 -9.83018,-73.62141 32.94681,6.07964 43.00709,40.64923 44.52315,69.45935 13.63632,68.4061 29.37936,136.38506 42.02904,204.9888 -17.88974,24.34152 -48.82392,32.9938 -72.07574,51.01994 -71.43947,44.11133 -142.21743,89.96432 -217.23141,127.69984 -2.6458,1.04872 -5.16371,0.75105 -7.89455,0.29571 z M 319.10289,452.421 c 18.34257,3.93254 57.55862,-15.2054 20.74839,-24.65921 -27.8493,-21.25636 -65.98883,-11.86863 -89.37333,9.77757 8.84075,13.99868 42.16374,12.80351 61.39806,15.98565 l 3.59712,-0.40845 z M 247.1565,417.94728 c 29.09115,-14.05626 62.68195,-40.78127 91.1625,-8.84402 28.00068,20.73141 66.04292,7.36951 78.04645,-23.74921 7.42397,-18.75464 0.21624,-42.20858 23.95979,-41.94378 18.58592,-2.32868 54.29392,-12.47302 30.67013,-38.44852 -16.20796,-10.97433 -44.88504,-14.2137 -24.8777,-40.20808 11.10104,-35.46372 -37.50759,-25.91962 -55.16536,-14.74159 -7.56303,26.38586 -38.70997,-17.81176 -41.29486,14.54946 -6.78301,17.20624 -27.92828,-24.09129 -25.39013,-5.847 -23.70546,-7.34113 -49.08601,-3.42806 -66.20947,15.94935 -10.24105,12.13766 -36.60221,31.04258 -15.76044,5.93835 13.95767,-8.77271 28.89786,-43.20646 4.70485,-23.2945 -9.26322,7.67077 -23.07869,6.87144 -31.64269,-7.30196 -16.14152,-11.70478 -61.37789,-21.02652 -55.5682,12.4981 16.79058,19.19799 3.0224,38.73938 -17.23825,25.58941 -34.32619,13.49274 -11.85924,48.82744 12.15908,58.07401 39.21515,-2.35718 25.33485,41.13109 50.40491,59.24731 10.89486,10.29835 26.99731,18.98014 42.03939,12.53267 z M 295.5,369.57281 c -23.07492,-13.40057 -54.07481,-65.64583 -5.37356,-60.02224 26.5681,-7.20776 76.33111,7.28274 40.28044,37.61278 -8.03894,11.05488 -18.42022,28.78672 -34.90688,22.40946 z M 421.82298,198.92205 c -14.79065,-28.72069 -56.20029,-18.71071 -82.91507,-27.08244 -51.21191,-4.46965 -103.62918,0.24714 -152.34812,17.14073 -4.56577,20.36515 40.21143,3.71774 52.94014,2.49064 60.39609,-9.48662 122.41906,-4.06538 181.52658,10.63549 1.35617,-0.74638 0.82094,-2.03945 0.79647,-3.18442 z m -88.15776,-38.07746 c 18.82887,1.56638 21.89662,1.01536 21.44554,-9.38613 -6.04982,-68.019092 -68.60655,-74.188499 -91.32296,-43.73081 -12.19656,37.24942 -51.56807,52.63605 8.94567,52.4705 z M 110.33334,181.50371 C 121.47349,99.499533 187.18425,52.279874 245.01148,31.079096 c 15.77632,-4.912762 4.84412,18.911919 5.40615,23.06452 -5.12044,42.490611 -34.73193,40.80596 -34.51154,90.002014 -22.07262,14.96461 -46.253,17.47268 -71.0673,26.17824 -10.49581,1.89735 -24.22436,10.41899 -34.50545,11.17984 z m 369.22972,-10.69332 c -25.21333,-17.6784 -62.45243,-19.209 -84.83518,-35.44875 0.64889,-20.56467 7.08653,-36.189238 -13.2084,-50.432553 -11.82585,-4.93949 -21.87492,-37.071168 -18.12228,-49.694821 63.0384,13.439119 113.61826,66.107934 128.10169,128.425824 6.05682,13.27869 -2.66751,10.94355 -11.93583,7.1503 z"
         id="path19172" />
      <path
         style="display:inline;fill:#444c5a"
         d="M 299.34764,592.05368 C 208.51903,545.95813 123.40178,489.64463 36.980319,435.97426 5.7667461,425.90786 7.4504336,396.40482 17.506552,370.08821 33.190123,300.13299 46.555722,229.62907 62.23328,159.64924 c 8.868215,-13.07815 51.69185,-34.16591 34.32596,-1.65948 -2.994991,15.42322 -26.781877,66.28355 4.48553,48.59679 19.26342,-5.36074 52.19788,-34.0371 65.45245,-17.71096 -21.83845,15.42205 -50.25743,21.62238 -72.684838,37.84034 -16.965106,3.8093 -23.027749,37.81575 -1.818691,18.59824 129.446499,-76.69376 301.569319,-76.15889 429.293359,4.07898 21.85558,1.01745 -12.58314,-31.95052 -24.89979,-33.24926 -13.06751,-6.59283 -55.89342,-17.20347 -44.6536,-30.04465 24.53392,-1.75207 53.985,28.8211 69.64689,23.69371 2.97408,-23.22591 -18.6227,-54.48324 -12.66187,-70.33353 30.91083,2.99334 44.16668,34.04807 44.3242,61.33195 14.10139,70.83104 30.34216,141.22797 43.50646,212.24682 -16.22943,23.87597 -46.62494,31.11415 -68.39243,48.72983 -72.63744,44.89297 -144.63001,91.48666 -220.8647,129.9785 -2.65838,1.03269 -5.20098,0.7739 -7.94457,0.30716 z M 247.1565,417.94728 c 28.75595,-13.47305 61.77217,-40.80444 90.16431,-9.64079 27.5559,21.6232 66.74422,9.39342 78.51219,-22.91492 11.65194,-13.50707 -1.40894,-42.08116 19.16904,-38.38859 11.10269,-12.07373 57.51123,-5.49727 41.07599,-33.17657 -5.02166,-23.17429 -51.89955,-14.03784 -32.89615,-43.08022 14.89442,-27.39044 -15.98882,-44.70298 -38.36545,-50.38843 -76.16843,-21.1615 -160.4756,-20.69701 -233.29279,12.27665 -22.28405,13.72167 -2.72675,46.49107 -4.38676,58.07456 -24.37413,-10.74334 -59.80351,15.45782 -33.28167,39.05853 1.60099,5.79289 35.61563,29.60888 20.45851,15.3474 12.59499,11.72324 36.0876,0.41371 30.41917,26.05697 7.4507,25.0219 32.94983,57.29049 62.42361,46.77541 z M 295.5,369.57281 c -23.07492,-13.40057 -54.07481,-65.64583 -5.37356,-60.02224 20.13514,-3.09573 71.27964,-0.85834 46.52934,29.94994 -11.45328,11.721 -20.39981,37.15622 -41.15578,30.0723 z m -62.79494,-73.32393 c 4.41002,-17.34753 34.18817,-31.03242 25.71623,-47.59947 -12.24242,16.6592 -34.1307,17.68726 -48.97675,-2.13573 -27.13717,-10.11429 36.62964,-14.63544 47.70979,-16.8027 50.62076,-5.61779 102.41177,-2.3137 151.54512,11.36707 -20.19661,6.53947 -27.36107,28.69928 -46.2353,10.46702 -16.41443,-5.39272 -10.008,31.78563 -26.27553,11.90127 -6.24225,-5.08533 -13.99206,-15.31283 -12.02855,-4.8078 -23.59099,-6.82379 -49.10297,-3.42733 -66.09202,16.01498 -8.199,7.47722 -15.8966,15.66591 -25.36299,21.59536 z m 2.66931,-131.71568 c -11.02237,-45.47313 27.54219,-99.334201 76.68465,-92.127334 39.14279,5.232002 65.40514,47.948914 59.30014,85.629164 -11.49497,17.11006 -32.1234,1.83731 -19.57466,-13.16363 0.70216,-33.56022 -35.51469,-62.832403 -67.50467,-47.261463 -29.97956,9.779293 -27.6817,45.089263 -31.88111,66.524443 -5.52678,1.72445 -11.38085,0.50077 -17.02435,0.39882 z"
         id="path19171" />
      <path
         style="display:inline;fill:#3b4351"
         d="M 293.5,589.64883 C 197.31474,537.67889 104.96783,478.87982 13.033274,419.84444 5.7298706,395.37316 21.72308,366.89978 24.111294,340.93652 37.165707,282.60266 47.926091,223.73711 61.463705,165.53901 c 2.572007,-16.32886 55.315325,-43.57791 34.663344,-8.43879 -2.412141,16.8546 -17.329182,45.18187 -9.215366,56.44715 24.642517,-12.11311 49.354477,-25.08388 75.940767,-32.23182 17.57369,15.50088 -30.48976,18.71253 -40.69221,30.40706 -17.1856,7.99083 -54.641696,25.45056 -42.533984,41.25118 130.412064,-84.27033 310.069664,-86.40344 441.660794,-3.58064 19.35696,12.41503 -0.22156,-27.14903 -13.70845,-25.57702 -15.7478,-15.98363 -57.67847,-17.35653 -60.82195,-37.86134 26.46953,-0.23404 50.09523,17.81725 73.74707,28.372 4.63727,-20.41889 -9.22936,-48.00375 -14.10974,-70.42655 -0.68224,-14.15599 30.88389,8.90658 37.59919,15.60665 17.40082,82.78932 34.67875,165.74044 51.76832,248.63712 -3.20208,24.98941 -40.5302,30.78472 -57.80485,47.11722 -74.18706,46.166 -147.928,93.37888 -225.29945,134.07886 -5.97553,3.1078 -13.193,3.8795 -19.15719,0.30874 z m 20.52574,-125.06142 c 19.38161,-3.13565 70.78981,-28.17785 26.68799,-36.74491 -23.38397,-16.97435 -49.54195,-19.23349 -73.146,-1.25691 -17.43714,3.65249 -32.46287,16.23668 -7.31916,24.5005 15.82694,10.14164 34.74057,17.51264 53.77717,13.50132 z M 146.96482,428.06574 c 5.1322,-9.75069 -1.55991,-29.80387 15.70955,-14.0088 11.38704,1.60896 32.80206,2.76753 28.77905,-13.62048 14.47093,3.01536 36.34681,33.26202 60.26703,15.37286 24.1936,-7.03203 48.62278,-37.20973 73.10307,-14.49372 21.04099,12.21823 51.11593,30.97239 72.39262,9.06698 13.58885,-16.94244 18.89597,-11.35189 21.95752,4.62987 11.91713,5.74532 20.41175,-25.28827 29.97417,-8.79878 8.9971,7.90426 30.55527,11.66501 10.01308,-0.83952 -19.88823,-10.51584 -17.21769,-18.73104 0.12664,-22.13534 12.33859,-6.87061 44.48929,-11.52681 46.08965,-20.10583 -18.71123,-5.02863 -42.35368,-5.11827 -58.13072,-13.4414 C 456.66762,342.39164 469.70644,339.10969 479,334 c 8.87927,-5.04864 41.99987,-15.25989 31.55118,-24.04248 -10.54156,-6.9123 -5.93572,-24.8833 -20.55118,-26.83315 -15.45061,-7.88107 -23.43912,-16.3497 -41.71906,-11.47425 1.06113,-20.92343 -9.47886,-41.61659 -32.48368,-47.55355 -78.80733,-25.59177 -168.01264,-25.67112 -244.27362,8.53785 -9.39683,4.74229 -13.74185,29.3259 -12.53895,34.55657 -12.34161,-4.78346 -18.24105,1.3873 -33.03971,-1.80844 -21.89881,-6.21968 -6.09314,22.14403 -23.38406,29.48746 -21.306171,17.69012 5.06717,34.21795 23.04555,38.06031 7.37722,6.10881 45.09224,15.16523 24.17893,21.05083 -13.34544,3.45166 -65.907937,7.62805 -28.71337,19.9447 10.17214,7.42641 48.63198,9.05435 38.21189,21.6531 -12.4909,11.02646 -37.15748,26.11596 -20.28392,24.71074 -5.21564,-4.12179 7.94783,14.84748 7.96482,7.77605 z m 88.53402,-263.20967 c -2.48897,-28.67658 2.1395,-62.0185 28.68149,-78.736753 34.8394,-25.93533 91.05455,-8.504992 102.96677,33.957493 11.71642,14.39869 2.5521,62.51515 -16.24404,38.22787 2.57037,-23.64137 -3.83437,-52.41774 -28.98114,-61.179444 -27.13766,-14.237188 -61.16416,6.343264 -65.34402,35.714584 -4.50413,16.67157 6.61515,38.51544 -21.07906,32.01625 z"
         id="path19170" />
      <path
         style="display:inline;fill:#2f3847"
         d="m 292.47179,588.64 c -54.62055,-28.90445 -107.36218,-61.17957 -159.73033,-93.94134 -9.72357,-24.16842 37.07828,-16.53283 45.476,-27.13153 32.01747,10.58231 37.01882,-31.2971 59.78383,-43.4569 26.70706,-7.17955 50.90001,-40.70116 80.11676,-26.13833 17.94165,16.85856 53.6668,15.78876 62.12515,39.18594 19.45987,12.54703 22.83595,39.3224 45.77318,47.12188 16.57602,-10.84847 35.61086,23.57706 52.14576,0.28098 15.13453,-3.69279 30.07085,-20.29249 42.48398,-19.08962 -69.97047,42.7334 -138.69433,88.67631 -212.36834,125.06989 -5.21803,1.48458 -11.16165,1.11852 -15.80599,-1.90097 z M 318.2885,465.05409 c 16.0214,-4.32754 65.21212,-25.86423 27.27781,-35.95329 -27.71371,-22.73856 -59.92553,-17.11051 -87.87611,0.22172 -34.38148,14.13721 20.57923,34.12177 36.03936,36.73599 8.14426,1.27298 16.55956,1.05821 24.55894,-1.00442 z m 221.31964,-15.34117 c 13.55874,-18.98282 38.0915,-38.32661 27.58268,-61.95373 14.61224,-19.177 1.20289,-47.20848 -13.21075,-53.87037 2.62646,-24.81154 -13.35976,-47.02166 -9.12167,-71.88141 6.23178,-33.67215 -37.09858,-30.62231 -54.9681,-48.59912 -11.85838,-4.53846 -49.84373,-16.77769 -38.32894,-27.29098 27.34073,5.96767 59.76267,16.64029 75.99203,40.21226 -3.80845,-29.10475 -14.57819,-58.37815 -21.76966,-87.36584 33.04537,2.9556 47.28584,37.04216 47.32147,66.11468 13.57215,67.60605 28.28942,134.97501 42.11396,202.52905 -5.80527,23.87929 -35.23376,34.04407 -55.61102,42.10546 z M 58.998132,448.67707 C 39.717163,433.28201 -1.7102554,423.55507 14.13063,390.25018 24.336036,342.26931 34.040972,294.08005 46.757244,246.77157 c 6.11024,-30.59519 2.672841,-65.74907 22.443894,-91.33681 10.748702,-14.32452 43.636392,-24.71093 26.529105,3.04811 -5.397401,17.23316 -26.781729,72.6346 7.988987,46.78556 18.48892,-4.78767 50.5481,-33.13202 62.90635,-16.32603 -20.15616,14.08891 -46.02999,20.73336 -67.34212,34.48598 -18.443276,-0.36282 -40.452138,41.76092 -10.174645,24.62311 43.550065,-29.23614 95.020315,-45.3153 146.468415,-54.21321 100.6004,-16.17343 207.88795,3.80011 293.03894,60.70516 13.80265,12.61018 11.14692,54.61914 -11.09182,26.54259 -27.02204,-19.61195 -61.45299,-26.58476 -86.38667,-48.86702 -34.16953,-19.22566 -74.6949,-22.79317 -113.10942,-25.94242 -49.95968,-2.33657 -100.8272,5.64967 -146.53535,26.37764 -19.97687,23.68023 -54.52557,25.93025 -78.276143,44.85262 -10.244931,11.52577 -35.25782,21.46372 -22.384282,-4.36197 C 68.261807,258.84799 43.043136,289.66705 60.606989,289 c -7.036816,20.56203 -5.814051,51.71672 -18.837987,61.41432 -0.895964,6.41701 -9.579629,-7.11531 -6.597486,8.58827 -2.399152,12.14233 -4.778766,35.2609 9.670961,25.61921 5.013138,13.24912 -22.864864,12.72635 -1.732953,24.8921 6.437533,12.70907 26.213615,25.01385 20.462926,41.19637 l -4.574318,-2.03322 z m 48.683498,-40.08666 c -26.273151,-9.3581 -60.519473,-27.80478 -37.326259,-59.37905 -0.798571,-19.51357 11.607347,-47.26514 31.787859,-25.38 14.96427,8.61372 51.52523,17.29652 51.95199,28.22185 -16.05577,5.54562 -55.742868,5.29923 -56.898001,15.0588 17.775711,9.00627 56.307181,12.04163 60.219401,27.85944 -13.37701,11.36593 -32.67639,32.60321 -49.73499,13.61896 z m 367.14692,6.38255 c -16.64686,-8.37082 -42.54713,-30.69322 -7.96731,-33.87162 12.81708,-3.01138 64.99304,-18.01859 26.97287,-21.92425 -12.39606,-0.48532 -61.65942,-7.81112 -27.85374,-18.47549 20.90278,-4.90702 63.70893,-44.66842 64.84616,-5.68194 13.69116,23.17532 17.97643,57.47137 -15.1714,64.14683 -12.51409,7.18011 -25.50338,17.57449 -40.82658,15.80647 z M 111,181.28181 c 4.7494,-20.56701 17.36908,-65.4207 31.83034,-64.6669 1.98995,21.76242 24.99239,53.89439 -11.66452,56.39413 -6.84654,2.37126 -14.25788,3.80982 -20.16582,8.27277 z m 124.74517,-16.00113 c -4.03856,-35.63363 7.23925,-91.086203 68.95158,-92.98474 26.13056,1.538757 67.65502,5.613643 67.76296,90.0771 -4.8338,2.43106 -12.83587,2.80021 -20.79511,-1.05179 4.00342,-50.86554 -17.55884,-67.54381 -49.79601,-68.992942 -50.19621,3.159934 -44.37043,50.088992 -52.54446,71.597832 -4.358,1.53398 -9.04605,1.18875 -13.57896,1.35454 z"
         id="path19169" />
      <path
         style="display:inline;fill:#182e62"
         d="M 106.5,407.69608 C 71.108902,389.55014 63,384.82226 63,382.33349 63,368.87293 79.697885,313.83894 83.303497,315.41588 85.061573,316.18479 90.55,318.60243 95.5,320.7884 c 4.95,2.18598 14.4,6.31664 21,9.17924 21.03447,9.12325 42.5,19.27491 42.5,20.09946 0,1.05094 -1.40324,1.41748 -15,3.9181 -6.325,1.16325 -14.875,2.77086 -19,3.57248 -4.125,0.80161 -13.11947,2.37103 -19.9877,3.4876 -15.818402,2.5716 -16.103022,2.97877 -4.81762,6.89199 C 146.27107,383.91426 162,389.77782 162,390.97756 c 0,1.37314 -30.99696,25.37584 -34.26898,26.53641 -0.67706,0.24015 -10.23102,-4.1779 -21.23102,-9.81789 z m 360.44337,1.52887 C 451.57637,397.97995 444,391.9912 444,391.08933 c 0,-1.00786 23.80012,-10.02603 48.78517,-18.48532 28.2677,-9.5707 28.58744,-8.38494 -3.78517,-14.03728 -28.41858,-4.96196 -42.05538,-7.90058 -41.694,-8.98473 0.52586,-1.57759 74.93767,-34.582 77.96865,-34.582 0.99185,0 2.23973,3.30709 4.05636,10.75 1.44309,5.9125 5.29878,21.04239 8.5682,33.62198 7.09067,27.28241 8.11859,23.60523 -9.18505,32.85769 -53.89907,28.82046 -47.87566,27.16322 -61.77079,16.99528 z M 70.383976,286.88313 c 3.043146,-19.55307 3.112584,-27.80544 12.209738,-34.13407 21.105746,-14.68267 61.143166,-33.37755 68.019406,-36.07334 93.98213,-36.84519 202.10108,-41.36109 298.35018,-2.70594 40.07377,16.09426 72.99434,35.02189 78.49859,38.21149 2.51954,1.46002 4.83457,16.37174 6.76967,27.35812 2.08441,11.83407 2.38033,11.42689 -4.85319,6.67792 -16.91399,-11.10441 -29.12368,-18.2441 -42.87837,-25.0734 -20.05824,-9.95906 -37.36009,-18.07069 -39.90843,-18.71028 -1.32802,-0.33331 -3.62061,-1.95959 -5.09464,-3.61394 -2.27568,-2.55405 -3.17402,-2.91525 -5.95365,-2.39379 -3.03864,0.57006 -3.24069,0.44203 -2.81518,-1.78386 0.78454,-4.10408 -8.34769,-8.43409 -32.04618,-15.19457 -71.67347,-20.44633 -153.523,-17.5135 -216.68192,7.76412 -13.78147,5.51566 -15.24023,6.39313 -12.99164,7.81474 1.11534,0.70514 0.67822,0.94691 -1.73268,0.95836 -2.53417,0.012 -3.54341,0.63237 -4.71509,2.89814 -0.81992,1.58556 -2.65007,3.1738 -4.06699,3.52942 -10.11004,2.53746 -63.486563,30.36149 -80.234402,41.82446 -11.560545,7.91256 -10.657139,7.67046 -9.875222,2.64642 z M 80.391424,231.84578 C 80.765279,230.0056 81.591666,225.575 82.227838,222 c 1.156678,-6.5 1.156678,-6.5 11.71442,-11.94389 18.588622,-9.58486 42.184502,-20.06772 55.431012,-24.62613 14.59933,-5.02395 13.70789,-4.8059 13.37673,-3.27198 -0.1375,0.6369 1.08394,1.8744 2.71431,2.75 6.99787,3.75824 6.66907,4.19533 -6.91812,9.19666 -8.18096,3.01134 -59.023001,28.90243 -69.940346,35.61682 -8.894157,5.47008 -8.894157,5.47008 -8.21442,2.1243 z M 518.91425,230.57927 C 510.76227,225.21418 477.47501,207.57389 466,202.53784 c -21.84501,-9.58716 -21,-9.06647 -21,-12.93999 0,-3.63268 1.85106,-4.6006 8.5,-4.44468 6.39822,0.15005 43.45199,15.93853 59.53687,25.36845 4.2014,2.46311 8.07329,4.47838 8.60419,4.47838 0.78756,0 5.43126,16.63082 5.37504,19.25 -0.0291,1.35435 -1.43296,0.71829 -8.10185,-3.67073 z"
         id="path19168" />
      <path
         style="display:inline;fill:#28303d"
         d="m 299.24618,591.02316 c -35.60884,-17.4432 -70.07895,-37.22951 -102.98903,-59.35232 -1.9728,-28.57558 33.20939,-16.5187 50.42185,-18.54002 26.51242,-3.49175 7.02096,-43.88245 27.11647,-47.46318 17.81957,1.36476 41.76015,0.65391 55.53742,6.34966 2.70561,20.38467 4.20048,50.95682 31.26329,52.70357 13.72069,-3.58476 24.42459,-7.33872 36.22893,3.82981 5.42344,-1.51172 30.54421,-13.56197 22.27147,-1.41478 -37.8698,22.67909 -75.07806,48.01788 -116.37125,63.90192 -1.15053,0.16579 -2.32154,-0.0347 -3.47915,-0.0147 z m 68.57551,-427.5348 c -25.61508,-6.67595 -12.28206,-39.25245 -25.78624,-55.45978 -16.40078,-22.43416 -53.06387,-15.877276 -69.7255,-11.081767 5.17653,-25.514778 39.50317,-26.476503 58.2658,-16.134307 29.53536,14.229062 47.58898,50.902424 37.24594,82.675854 z M 236.64185,159.25 c -6.47172,-15.84957 4.40692,-56.08842 21.46879,-43.97754 -2.2679,13.68844 0.2574,50.61957 -21.46879,43.97754 z"
         id="path19167" />
    </g>
  </g>
</svg>
